<svg width="25" height="24" viewBox="0 0 25 24" fill="none" xmlns="http://www.w3.org/2000/svg">
<path d="M11.772 7.2199C10.896 7.2199 9.54001 6.2239 8.11201 6.2599C6.22801 6.2839 4.50001 7.3519 3.52801 9.0439C1.57201 12.4399 3.02401 17.4559 4.93201 20.2159C5.86801 21.5599 6.97201 23.0719 8.43601 23.0239C9.84001 22.9639 10.368 22.1119 12.072 22.1119C13.764 22.1119 14.244 23.0239 15.732 22.9879C17.244 22.9639 18.204 21.6199 19.128 20.2639C20.196 18.7039 20.64 17.1919 20.664 17.1079C20.628 17.0959 17.724 15.9799 17.688 12.6199C17.664 9.8119 19.98 8.4679 20.088 8.4079C18.768 6.4759 16.74 6.2599 16.032 6.2119C14.184 6.0679 12.636 7.2199 11.772 7.2199ZM14.892 4.3879C15.672 3.4519 16.188 2.1439 16.044 0.8479C14.928 0.8959 13.584 1.5919 12.78 2.5279C12.06 3.3559 11.436 4.6879 11.604 5.9599C12.84 6.0559 14.112 5.3239 14.892 4.3879Z" fill="black"/>
</svg>
