<svg width="21" height="14" viewBox="0 0 21 14" fill="none" xmlns="http://www.w3.org/2000/svg">
<path d="M3.5 14H2.5L1.85 12H0.5V6.975C0.5 6.425 0.695833 5.95833 1.0875 5.575C1.47917 5.19167 1.95 5 2.5 5V2C2.5 1.45 2.69583 0.979167 3.0875 0.5875C3.47917 0.195833 3.95 0 4.5 0H16.5C17.05 0 17.5208 0.195833 17.9125 0.5875C18.3042 0.979167 18.5 1.45 18.5 2V5C19.05 5 19.5208 5.19583 19.9125 5.5875C20.3042 5.97917 20.5 6.45 20.5 7V12H19.15L18.5 14H17.5L16.85 12H4.15L3.5 14ZM11.5 5H16.5V2H11.5V5ZM4.5 5H9.5V2H4.5V5ZM2.5 10H18.5V7H2.5V10Z" fill="#686262"/>
</svg>
