<svg width="21" height="24" viewBox="0 0 21 24" fill="none" xmlns="http://www.w3.org/2000/svg">
<path d="M8.19414 1.73987L8.31365 1.70534L8.35818 1.58919C8.51099 1.1906 8.77227 0.851423 9.10648 0.613642C9.44051 0.375995 9.83263 0.25 10.2326 0.25C10.6326 0.25 11.0248 0.375995 11.3588 0.613642C11.693 0.851423 11.9543 1.1906 12.1071 1.58919L12.1515 1.70517L12.2708 1.73979C13.8968 2.2117 15.3336 3.23464 16.359 4.65455C17.3846 6.07465 17.9411 7.81252 17.9412 9.60125V15.2371V15.3094L17.9799 15.3706L20.0627 18.6678L20.0628 18.6679C20.1534 18.8113 20.2062 18.9792 20.2142 19.1535C20.2222 19.3279 20.1852 19.5007 20.1078 19.6532C20.0305 19.8057 19.9163 19.9314 19.779 20.0183C19.6417 20.105 19.486 20.1501 19.3282 20.1501H19.3282H14.1721H13.954L13.9244 20.3662C13.7952 21.3098 13.3485 22.17 12.6695 22.7904C11.9909 23.4106 11.1256 23.75 10.2326 23.75C9.33965 23.75 8.4744 23.4106 7.79575 22.7904C7.11675 22.17 6.67004 21.3098 6.54082 20.3662L6.51123 20.1501H6.29313H1.13711H1.13707C0.97928 20.1501 0.823523 20.105 0.686298 20.0183C0.548935 19.9314 0.434765 19.8057 0.357453 19.6532C0.280103 19.5007 0.24305 19.3279 0.251075 19.1535C0.2591 18.9792 0.311823 18.8113 0.40249 18.6679L0.402537 18.6678L2.48541 15.3706L2.52405 15.3094V15.2371V9.60124C2.52405 5.8391 4.93376 2.68187 8.19414 1.73987ZM8.62386 20.4001V20.4005L8.3879 20.4794C8.52096 20.8773 8.76846 21.2242 9.09861 21.4707C9.42896 21.7174 9.82537 21.851 10.2332 21.851C10.641 21.851 11.0374 21.7174 11.3678 21.4707C11.6979 21.2242 11.9454 20.8773 12.0785 20.4794L12.1886 20.1501H11.8414H8.80501H8.625H8.62386V20.4001ZM4.29793 15.6006V15.6007C4.29797 15.7912 4.24448 15.9765 4.14558 16.133L4.14554 16.1331L3.05067 17.8669L2.80851 18.2504H3.26205H17.2021H17.6556L17.4135 17.8669L16.3188 16.1334C16.3188 16.1334 16.3188 16.1333 16.3187 16.1333C16.2202 15.9767 16.167 15.7914 16.1673 15.601V15.6006V9.60124C16.1673 7.94802 15.5452 6.35999 14.4338 5.1871C13.322 4.01375 11.8111 3.35187 10.2326 3.35187C8.65417 3.35187 7.14327 4.01375 6.03147 5.1871C4.9201 6.35999 4.29793 7.94802 4.29793 9.60124V15.6006Z" fill="black" stroke="black" stroke-width="0.5"/>
</svg>
