<svg width="21" height="24" viewBox="0 0 21 24" fill="none" xmlns="http://www.w3.org/2000/svg">
<path d="M8.12474 1.4997C8.29462 1.0566 8.586 0.67713 8.96156 0.409938C9.33711 0.142745 9.77971 0 10.2326 0C10.6856 0 11.1282 0.142745 11.5037 0.409938C11.8793 0.67713 12.1706 1.0566 12.3405 1.4997C14.0218 1.98766 15.5048 3.0446 16.5617 4.50818C17.6187 5.97176 18.1911 7.76105 18.1912 9.60124V15.2371L20.2741 18.5343C20.3883 18.715 20.4539 18.925 20.4639 19.142C20.4739 19.359 20.4279 19.5748 20.3308 19.7663C20.2337 19.9578 20.0891 20.118 19.9125 20.2296C19.736 20.3412 19.534 20.4001 19.3282 20.4001H14.1721C14.0352 21.3997 13.5617 22.3138 12.8382 22.975C12.1147 23.6361 11.1897 24 10.2326 24C9.2756 24 8.35061 23.6361 7.6271 22.975C6.9036 22.3138 6.43002 21.3997 6.29313 20.4001H1.13711C0.931275 20.4001 0.729293 20.3412 0.552713 20.2296C0.376132 20.118 0.231578 19.9578 0.134472 19.7663C0.0373667 19.5748 -0.00864728 19.359 0.00133914 19.142C0.0113256 18.925 0.0769378 18.715 0.191176 18.5343L2.27405 15.2371V9.60124C2.27405 5.73285 4.75258 2.47399 8.12474 1.4997ZM8.625 20.4001C8.74242 20.7513 8.96015 21.0553 9.24818 21.2704C9.53621 21.4855 9.88036 21.601 10.2332 21.601C10.586 21.601 10.9302 21.4855 11.2182 21.2704C11.5062 21.0553 11.724 20.7513 11.8414 20.4001H8.62386H8.625ZM10.2326 3.60187C8.72495 3.60187 7.27903 4.23395 6.21294 5.35905C5.14685 6.48415 4.54793 8.01011 4.54793 9.60124V15.6006C4.54798 15.8376 4.48152 16.0693 4.35692 16.2665L3.26205 18.0004H17.2021L16.1072 16.2665C15.983 16.0692 15.9169 15.8375 15.9173 15.6006V9.60124C15.9173 8.01011 15.3184 6.48415 14.2523 5.35905C13.1862 4.23395 11.7403 3.60187 10.2326 3.60187Z" fill="white"/>
</svg>
