<svg width="24" height="24" viewBox="0 0 24 24" fill="none" xmlns="http://www.w3.org/2000/svg">
<path d="M2.32986 16V2.28571H0.0324707V0H3.47856C3.78321 0 4.07539 0.120408 4.29081 0.334735C4.50623 0.549062 4.62725 0.839753 4.62725 1.14286V14.8571H18.9147L21.2121 5.71429H6.92465V3.42857H22.6848C22.8594 3.42858 23.0317 3.46818 23.1886 3.54438C23.3455 3.62059 23.4829 3.73137 23.5903 3.86833C23.6977 4.00528 23.7724 4.1648 23.8085 4.33475C23.8447 4.50471 23.8414 4.68063 23.799 4.84914L20.9272 16.2777C20.865 16.5249 20.7216 16.7442 20.5197 16.901C20.3178 17.0577 20.0691 17.1429 19.813 17.1429H3.47856C3.17391 17.1429 2.88173 17.0225 2.66631 16.8081C2.45089 16.5938 2.32986 16.3031 2.32986 16ZM4.62725 24C4.01795 24 3.4336 23.7592 3.00275 23.3305C2.57191 22.9019 2.32986 22.3205 2.32986 21.7143C2.32986 21.1081 2.57191 20.5267 3.00275 20.098C3.4336 19.6694 4.01795 19.4286 4.62725 19.4286C5.23656 19.4286 5.82091 19.6694 6.25176 20.098C6.6826 20.5267 6.92465 21.1081 6.92465 21.7143C6.92465 22.3205 6.6826 22.9019 6.25176 23.3305C5.82091 23.7592 5.23656 24 4.62725 24ZM18.4116 24C17.8023 24 17.2179 23.7592 16.7871 23.3305C16.3563 22.9019 16.1142 22.3205 16.1142 21.7143C16.1142 21.1081 16.3563 20.5267 16.7871 20.098C17.2179 19.6694 17.8023 19.4286 18.4116 19.4286C19.0209 19.4286 19.6053 19.6694 20.0361 20.098C20.4669 20.5267 20.709 21.1081 20.709 21.7143C20.709 22.3205 20.4669 22.9019 20.0361 23.3305C19.6053 23.7592 19.0209 24 18.4116 24Z" fill="black"/>
</svg>
