<svg width="18" height="14" viewBox="0 0 18 14" fill="none" xmlns="http://www.w3.org/2000/svg">
<path d="M3.75 13.5C3.5375 13.5 3.35938 13.4281 3.21563 13.2844C3.07188 13.1406 3 12.9625 3 12.75V12C2.375 12 1.84375 11.7812 1.40625 11.3437C0.96875 10.9062 0.75 10.375 0.75 9.75V6C0.75 5.375 0.96875 4.84375 1.40625 4.40625C1.84375 3.96875 2.375 3.75 3 3.75V2.25C3 1.625 3.21875 1.09375 3.65625 0.65625C4.09375 0.21875 4.625 0 5.25 0H12.75C13.375 0 13.9063 0.21875 14.3438 0.65625C14.7813 1.09375 15 1.625 15 2.25V3.75C15.625 3.75 16.1563 3.96875 16.5938 4.40625C17.0313 4.84375 17.25 5.375 17.25 6V9.75C17.25 10.375 17.0313 10.9062 16.5938 11.3437C16.1563 11.7812 15.625 12 15 12V12.75C15 12.9625 14.9281 13.1406 14.7844 13.2844C14.6406 13.4281 14.4625 13.5 14.25 13.5C14.0375 13.5 13.8594 13.4281 13.7156 13.2844C13.5719 13.1406 13.5 12.9625 13.5 12.75V12H4.5V12.75C4.5 12.9625 4.42813 13.1406 4.28438 13.2844C4.14063 13.4281 3.9625 13.5 3.75 13.5ZM3 10.5H15C15.2125 10.5 15.3906 10.4281 15.5344 10.2844C15.6781 10.1406 15.75 9.9625 15.75 9.75V6C15.75 5.7875 15.6781 5.60938 15.5344 5.46562C15.3906 5.32188 15.2125 5.25 15 5.25C14.7875 5.25 14.6094 5.32188 14.4656 5.46562C14.3219 5.60938 14.25 5.7875 14.25 6V9H3.75V6C3.75 5.7875 3.67813 5.60938 3.53438 5.46562C3.39063 5.32188 3.2125 5.25 3 5.25C2.7875 5.25 2.60938 5.32188 2.46563 5.46562C2.32188 5.60938 2.25 5.7875 2.25 6V9.75C2.25 9.9625 2.32188 10.1406 2.46563 10.2844C2.60938 10.4281 2.7875 10.5 3 10.5ZM5.25 7.5H12.75V6C12.75 5.6625 12.8188 5.35625 12.9563 5.08125C13.0938 4.80625 13.275 4.5625 13.5 4.35V2.25C13.5 2.0375 13.4281 1.85937 13.2844 1.71562C13.1406 1.57187 12.9625 1.5 12.75 1.5H5.25C5.0375 1.5 4.85938 1.57187 4.71563 1.71562C4.57188 1.85937 4.5 2.0375 4.5 2.25V4.35C4.725 4.5625 4.90625 4.80625 5.04375 5.08125C5.18125 5.35625 5.25 5.6625 5.25 6V7.5Z" fill="#686262"/>
</svg>
