<svg width="27" height="24" viewBox="0 0 27 24" fill="none" xmlns="http://www.w3.org/2000/svg">
<path d="M19.0615 0C16.7741 0 14.5787 1.0594 13.1458 2.73352C11.7129 1.0594 9.51758 0 7.23021 0C3.18129 0 0 3.16512 0 7.19346C0 12.1373 4.46958 16.1657 11.2397 22.2866L13.1458 24L15.052 22.2736C21.8221 16.1657 26.2917 12.1373 26.2917 7.19346C26.2917 3.16512 23.1104 0 19.0615 0ZM13.2773 20.3379L13.1458 20.4687L13.0144 20.3379C6.75696 14.7008 2.62917 10.9733 2.62917 7.19346C2.62917 4.57766 4.60104 2.6158 7.23021 2.6158C9.25467 2.6158 11.2265 3.91063 11.9233 5.70245H14.3815C15.0651 3.91063 17.037 2.6158 19.0615 2.6158C21.6906 2.6158 23.6625 4.57766 23.6625 7.19346C23.6625 10.9733 19.5347 14.7008 13.2773 20.3379Z" fill="white"/>
</svg>
