<svg width="24" height="24" viewBox="0 0 24 24" fill="none" xmlns="http://www.w3.org/2000/svg">
<path d="M5.61385 9.76453C6.54644 6.93863 9.2021 4.90909 12.3477 4.90909C14.0386 4.90909 15.5658 5.50909 16.7658 6.49091L20.2567 3C18.1295 1.14545 15.4022 0 12.3477 0C7.61772 0 3.54541 2.6983 1.58765 6.65002L5.61385 9.76453Z" fill="#EA4335"/>
<path d="M16.3885 18.0126C15.2987 18.7163 13.9138 19.0909 12.3477 19.0909C9.21423 19.0909 6.56686 17.0769 5.62472 14.2679L1.58521 17.335C3.54053 21.2936 7.61274 24 12.3477 24C15.2806 24 18.0831 22.9574 20.1819 20.9996L16.3885 18.0126Z" fill="#34A853"/>
<path d="M20.1818 20.9996C22.3768 18.9521 23.8022 15.9037 23.8022 12C23.8022 11.2909 23.6931 10.5273 23.5295 9.81818H12.3477V14.4545H18.784C18.4664 16.0136 17.614 17.2212 16.3884 18.0126L20.1818 20.9996Z" fill="#4A90E2"/>
<path d="M5.62464 14.2679C5.38598 13.5563 5.25675 12.7938 5.25675 12C5.25675 11.2183 5.38209 10.4668 5.61385 9.76453L1.58765 6.65002C0.784243 8.26043 0.347656 10.0754 0.347656 12C0.347656 13.9195 0.792437 15.7302 1.58512 17.335L5.62464 14.2679Z" fill="#FBBC05"/>
</svg>
