<svg width="16" height="20" viewBox="0 0 16 20" fill="none" xmlns="http://www.w3.org/2000/svg">
<path d="M2 20C1.45 20 0.979167 19.8135 0.5875 19.4405C0.195833 19.0675 0 18.619 0 18.0952V8.57143C0 8.04762 0.195833 7.59921 0.5875 7.22619C0.979167 6.85317 1.45 6.66667 2 6.66667H3V4.7619C3 3.44444 3.4875 2.32143 4.4625 1.39286C5.4375 0.464286 6.61667 0 8 0C9.38333 0 10.5625 0.464286 11.5375 1.39286C12.5125 2.32143 13 3.44444 13 4.7619V6.66667H14C14.55 6.66667 15.0208 6.85317 15.4125 7.22619C15.8042 7.59921 16 8.04762 16 8.57143V18.0952C16 18.619 15.8042 19.0675 15.4125 19.4405C15.0208 19.8135 14.55 20 14 20H2ZM2 18.0952H14V8.57143H2V18.0952ZM8 15.2381C8.55 15.2381 9.02083 15.0516 9.4125 14.6786C9.80417 14.3056 10 13.8571 10 13.3333C10 12.8095 9.80417 12.3611 9.4125 11.9881C9.02083 11.6151 8.55 11.4286 8 11.4286C7.45 11.4286 6.97917 11.6151 6.5875 11.9881C6.19583 12.3611 6 12.8095 6 13.3333C6 13.8571 6.19583 14.3056 6.5875 14.6786C6.97917 15.0516 7.45 15.2381 8 15.2381ZM5 6.66667H11V4.7619C11 3.96825 10.7083 3.29365 10.125 2.7381C9.54167 2.18254 8.83333 1.90476 8 1.90476C7.16667 1.90476 6.45833 2.18254 5.875 2.7381C5.29167 3.29365 5 3.96825 5 4.7619V6.66667Z" fill="#998558"/>
</svg>
