<svg width="25" height="26" viewBox="0 0 25 26" fill="none" xmlns="http://www.w3.org/2000/svg">
<path d="M12.4287 1C6.11679 1 1 6.37258 1 13C1 19.6274 6.11679 25 12.4287 25C18.7405 25 23.8574 19.6274 23.8574 13C23.8574 6.37258 18.7405 1 12.4287 1Z" stroke="black" stroke-width="2" stroke-linecap="round" stroke-linejoin="round"/>
<path d="M3.59497 20.6149C3.59497 20.6149 6.14245 17.2 12.4282 17.2C18.714 17.2 21.2615 20.6149 21.2615 20.6149" stroke="black" stroke-width="2" stroke-linecap="round" stroke-linejoin="round"/>
<path d="M12.4281 13C14.3217 13 15.8567 11.3883 15.8567 9.40002C15.8567 7.4118 14.3217 5.80002 12.4281 5.80002C10.5345 5.80002 8.99951 7.4118 8.99951 9.40002C8.99951 11.3883 10.5345 13 12.4281 13Z" stroke="black" stroke-width="2" stroke-linecap="round" stroke-linejoin="round"/>
</svg>
