<svg width="19" height="12" viewBox="0 0 19 12" fill="none" xmlns="http://www.w3.org/2000/svg">
<path d="M4.05192 0.666626H15.3366C16.1656 0.666626 16.8454 1.30499 16.9113 2.11691L16.9165 2.24649L16.917 4.14563C17.9067 4.42579 18.6451 5.30438 18.7164 6.36568L18.7221 6.53468V9.9201C18.7221 10.749 18.0837 11.4288 17.2717 11.4947L17.1422 11.5H2.24636C1.41746 11.5 0.737652 10.8616 0.67174 10.0496L0.666504 9.9201V6.53468C0.666504 5.39817 1.43022 4.43997 2.47246 4.14538L2.47206 2.24649C2.47206 1.41758 3.11042 0.737774 3.92234 0.671862L4.05192 0.666626ZM16.2394 5.40621C15.6551 5.40621 15.1746 5.85029 15.1168 6.41931L15.1109 6.53468V6.76038C15.1109 7.10316 14.8562 7.38645 14.5258 7.43132L14.4339 7.43746H4.9547C4.61191 7.43746 4.32863 7.1827 4.2838 6.85228L4.27761 6.76038V6.53468C4.27761 5.9114 3.77238 5.40621 3.14914 5.40621C2.56486 5.40621 2.08429 5.85029 2.02649 6.41931L2.02067 6.53468V9.9201C2.02067 10.0269 2.09491 10.1165 2.19462 10.1398L2.24636 10.1458H17.1422C17.249 10.1458 17.3386 10.0716 17.3619 9.97183L17.3679 9.9201V6.53468C17.3679 5.9114 16.8627 5.40621 16.2394 5.40621ZM15.3366 2.02079H4.05192C3.94508 2.02079 3.85558 2.09503 3.83218 2.19474L3.82623 2.24649L3.82692 4.1457C4.6743 4.38562 5.33739 5.06424 5.55527 5.9207L5.59085 6.08329H13.7977L13.8299 5.93415C14.0443 5.0711 14.7102 4.38643 15.5625 4.14545L15.5623 2.24649C15.5623 2.13964 15.4881 2.05014 15.3884 2.02675L15.3366 2.02079Z" fill="#686262"/>
</svg>
