<svg width="17" height="13" viewBox="0 0 17 13" fill="none" xmlns="http://www.w3.org/2000/svg">
<path d="M1.87921 4.0625H14.3511L13.6605 1.625H2.59015L1.87921 4.0625ZM12.0152 5.6875H4.23546L4.01203 7.3125H12.2183L12.0152 5.6875ZM1.61515 13L2.61046 5.6875H0.802652C0.531818 5.6875 0.318537 5.57917 0.162808 5.3625C0.00707859 5.14583 -0.0369318 4.90885 0.0307765 4.65156L1.18859 0.589062C1.24276 0.413021 1.33755 0.270833 1.47296 0.1625C1.60838 0.0541667 1.77088 0 1.96046 0H14.2698C14.4594 0 14.6219 0.0541667 14.7573 0.1625C14.8928 0.270833 14.9875 0.413021 15.0417 0.589062L16.1995 4.65156C16.2672 4.90885 16.2232 5.14583 16.0675 5.3625C15.9118 5.57917 15.6985 5.6875 15.4277 5.6875H13.6402L14.6152 13H12.9902L12.4417 8.9375H3.78859L3.24015 13H1.61515Z" fill="#686262"/>
</svg>
