<svg width="24" height="24" viewBox="0 0 24 24" fill="none" xmlns="http://www.w3.org/2000/svg">
<rect width="24" height="24" fill="white"/>
<path d="M12.2714 18.4902C13.1485 18.4902 13.9496 18.3947 14.6802 18.2296L13.0512 16.6006C12.798 16.6201 12.5412 16.6358 12.2714 16.6358C7.31015 16.6358 5.38813 13.0699 4.9227 12C5.27219 11.2201 5.74421 10.5011 6.32086 9.8703L5.02468 8.57412C3.5987 10.1197 3.05817 11.6764 3.04797 11.707C2.98401 11.8974 2.98401 12.1035 3.04797 12.2939C3.06744 12.3551 5.19436 18.4902 12.2714 18.4902ZM12.2714 5.50984C10.5682 5.50984 9.16912 5.877 8.00274 6.41939L4.58243 3L3.27141 4.31101L19.9604 21L21.2714 19.689L18.1941 16.6117C20.6178 14.8028 21.4828 12.3329 21.4958 12.2939C21.5597 12.1035 21.5597 11.8974 21.4958 11.707C21.4754 11.6449 19.3485 5.50984 12.2714 5.50984ZM16.8813 15.2989L14.7673 13.1849C14.9435 12.8233 15.0529 12.4256 15.0529 12C15.0529 10.4785 13.7929 9.2185 12.2714 9.2185C11.8458 9.2185 11.4481 9.32791 11.0874 9.505L9.41111 7.82868C10.3313 7.5129 11.2985 7.35582 12.2714 7.36417C17.2327 7.36417 19.1547 10.93 19.6201 12C19.3401 12.6416 18.5391 14.1714 16.8813 15.2989Z" fill="#903913"/>
</svg>
